PathFileType	4	(X/Y/Z)	/Users/itak/Documents/Research/Walk-IL/dataset/trc/00147_00007.trc
DataRate	CameraRate	NumFrames	NumMarkers	Units	OrigDataRate	OrigDataStartFrame	OrigNumFrames
100.000000	100.000000	4	53	mm	100.000000	326	523
Frame#	Time	RPSI			LPSI			L3			STRN			T10			C7			CLAV			RBAK			LBAK			LSHO			LUPA			LAEL			LAOL			LWTS			LWPS			LFRA			LIFD			LHPS			LHTS			RSHO			RUPA			RAEL			RAOL			RWTS			RWPS			RFRA			RIFD			RHTS			RHPS			RBHD			LFHD			RFHD			LBHD			LHIP			RHIP			RASI			LASI			LKNE			LTHI			LANK			LTIP			LTOE			LMT1			LMT5			LHEE			RKNE			RTHI			RANK			RTIP			RTOE			RMT1			RMT5			RHEE			
		X1	Y1	Z1	X2	Y2	Z2	X3	Y3	Z3	X4	Y4	Z4	X5	Y5	Z5	X6	Y6	Z6	X7	Y7	Z7	X8	Y8	Z8	X9	Y9	Z9	X10	Y10	Z10	X11	Y11	Z11	X12	Y12	Z12	X13	Y13	Z13	X14	Y14	Z14	X15	Y15	Z15	X16	Y16	Z16	X17	Y17	Z17	X18	Y18	Z18	X19	Y19	Z19	X20	Y20	Z20	X21	Y21	Z21	X22	Y22	Z22	X23	Y23	Z23	X24	Y24	Z24	X25	Y25	Z25	X26	Y26	Z26	X27	Y27	Z27	X28	Y28	Z28	X29	Y29	Z29	X30	Y30	Z30	X31	Y31	Z31	X32	Y32	Z32	X33	Y33	Z33	X34	Y34	Z34	X35	Y35	Z35	X36	Y36	Z36	X37	Y37	Z37	X38	Y38	Z38	X39	Y39	Z39	X40	Y40	Z40	X41	Y41	Z41	X42	Y42	Z42	X43	Y43	Z43	X44	Y44	Z44	X45	Y45	Z45	X46	Y46	Z46	X47	Y47	Z47	X48	Y48	Z48	X49	Y49	Z49	X50	Y50	Z50	X51	Y51	Z51	X52	Y52	Z52	X53	Y53	Z53	

327	3.26	593.3363037109375	1108.8095703125	764.74658203125	484.3145141601562	1117.28564453125	684.9840087890625	530.7699584960938	1150.888671875	728.298583984375	661.012939453125	1357.31396484375	560.208984375	509.6764831542969	1302.046752929688	763.37109375	520.8092651367188	1596.28466796875	733.1417236328125	636.27734375	1491.354614257812	589.957275390625	556.1150512695312	1408.906860351562	825.5925903320312	433.9662170410156	1577.80810546875	675.750244140625	432.2588806152344	1565.731567382812	565.7852783203125	367.1892395019531	1435.187866210938	531.3909301757812	364.5306091308594	1220.710205078125	478.2095031738281	375.3780212402344	1196.3251953125	562.937744140625	469.2101135253906	982.4595336914062	378.5306701660156	403.3899230957031	943.7117919921875	425.3196105957031	375.1539001464844	1108.76513671875	444.9161071777344	505.6526794433594	795.2421264648438	341.5987243652344	425.3540649414062	875.5145874023438	388.4092102050781	474.63671875	900.0269165039062	344.2707824707031	698.6767578125	1573.430297851562	796.6553344726562	736.1416625976562	1498.859985351562	848.075927734375	734.5377197265625	1205.439086914062	871.541015625	655.7667846679688	1206.776489257812	812.635986328125	807.9386596679688	957.06591796875	755.544921875	784.0482177734375	943.066162109375	833.1911010742188	759.2263793945312	1131.1865234375	864.2929077148438	798.4063720703125	762.8945922851562	727.494873046875	824.5142822265625	847.7811279296875	737.5188598632812	804.0326538085938	841.415283203125	807.6522827148438	630.2520141601562	1758.988403320312	746.0892944335938	529.1282958984375	1845.0908203125	569.7813110351562	654.2981567382812	1861.6767578125	601.1002807617188	498.91943359375	1744.306884765625	720.8406982421875	448.0028686523438	1035.086181640625	540.1409301757812	763.42919921875	1017.639953613281	717.6083984375	766.4367065429688	1096.755737304688	629.1898193359375	545.631591796875	1103.267456054688	480.3367919921875	554.867919921875	531.5596313476562	543.0482788085938	499.1798706054688	674.1829833984375	539.220703125	554.2338256835938	36.82275390625	659.2039184570312	508.0677185058594	279.8935852050781	615.3529052734375	744.43603515625	33.79204940795898	514.9490356445312	717.1962890625	40.42486572265625	598.2191772460938	614.037841796875	39.03978729248047	546.9889526367188	561.5013427734375	37.86824035644531	751.8120727539062	814.3867797851562	543.7913818359375	594.9429931640625	799.4332275390625	816.89111328125	652.658203125	654.2869262695312	145.0071868896484	910.2894287109375	789.115966796875	433.2339172363281	676.700927734375	765.7232055664062	55.13673782348633	735.1160888671875	694.807861328125	56.99286651611328	744.1211547851562	753.5757446289062	85.15019226074219	847.16552734375	582.6089477539062	167.0944213867188	909.93505859375	
328	3.27	599.2633056640625	1108.898193359375	759.564453125	489.3157958984375	1117.282958984375	681.0535278320312	535.9741821289062	1150.786254882812	723.7454833984375	664.1458740234375	1357.326171875	554.4366455078125	514.1953125	1302.040405273438	759.1326904296875	525.2376708984375	1596.239990234375	728.3697509765625	639.9550170898438	1491.372802734375	584.5534057617188	560.9759521484375	1408.596801757812	820.3304443359375	438.0458374023438	1577.925048828125	671.2554321289062	436.0755615234375	1566.02001953125	561.3601684570312	371.3887329101562	1435.635131835938	525.9426879882812	370.0866088867188	1221.81787109375	469.6851806640625	381.1327819824219	1196.304321289062	554.0538330078125	475.8478698730469	985.3132934570312	366.8676452636719	410.2444152832031	945.7420043945312	413.2286376953125	381.2812194824219	1110.394897460938	434.8945007324219	513.0104370117188	798.665283203125	327.6463623046875	432.3964233398438	878.0758056640625	375.46435546875	481.539794921875	903.3067016601562	331.5574340820312	703.3577880859375	1573.090698242188	791.0411987304688	740.8738403320312	1498.554565429688	842.373779296875	738.3297119140625	1205.173095703125	866.4247436523438	659.3865356445312	1206.67919921875	807.757568359375	811.1285400390625	956.9913330078125	749.6022338867188	787.5577392578125	942.7466430664062	827.311279296875	762.900146484375	1130.818969726562	859.0175170898438	801.7762451171875	762.9346923828125	720.93359375	827.8027954101562	847.8384399414062	731.1650390625	807.5526123046875	841.1996459960938	801.3556518554688	635.170166015625	1758.969482421875	740.513916015625	533.5213623046875	1845.114501953125	564.5645751953125	658.89990234375	1861.421630859375	595.313232421875	503.7599792480469	1744.610961914062	715.8826904296875	450.7147827148438	1034.834594726562	537.03173828125	768.9262084960938	1018.06591796875	709.672607421875	770.4419555664062	1097.0732421875	621.3219604492188	547.5227661132812	1103.12548828125	475.3038940429688	556.1709594726562	531.1802368164062	541.0314331054688	500.8582458496094	673.9666137695312	536.9486694335938	554.343994140625	36.92819213867188	659.2845458984375	508.7876586914062	279.9808044433594	614.6271362304688	744.5091552734375	33.62067794799805	514.7625732421875	717.2330932617188	40.37647247314453	598.1432495117188	614.0316162109375	38.91150283813477	546.992919921875	561.5575561523438	38.04879760742188	751.8482666015625	821.0889892578125	546.2938232421875	580.7010498046875	805.8060913085938	818.4265747070312	642.3458251953125	672.779541015625	138.4655303955078	889.70947265625	798.7409057617188	434.0199890136719	660.8463745117188	784.185546875	55.36199951171875	710.8633422851562	713.5103759765625	55.42441940307617	721.089111328125	773.015869140625	83.23030090332031	823.8027954101562	600.5126953125	158.6865386962891	891.112060546875	
329	3.28	605.0892944335938	1108.922119140625	754.2825317382812	494.212890625	1117.264404296875	677.1531372070312	541.114501953125	1150.639038085938	719.192138671875	667.2508544921875	1357.298828125	548.6747436523438	518.87255859375	1302.002319335938	754.82470703125	529.6510620117188	1596.12451171875	723.5867309570312	643.5951538085938	1491.347290039062	579.14697265625	565.8721313476562	1408.265380859375	815.0632934570312	442.1174011230469	1577.973388671875	666.7809448242188	439.8603820800781	1566.242431640625	556.9518432617188	375.5424499511719	1436.021728515625	520.5664672851562	375.4990234375	1222.9033203125	461.3765563964844	386.8850708007812	1196.270141601562	545.4088134765625	482.3846435546875	988.1953125	355.402099609375	417.0687561035156	947.7802734375	401.3895874023438	387.3088684082031	1112.007690429688	425.1080932617188	520.3251342773438	802.17041015625	313.9020080566406	439.3628845214844	880.6640625	362.7562866210938	488.3324890136719	906.6279296875	319.0497741699219	708.0447998046875	1572.75390625	785.3850708007812	745.6331787109375	1498.247802734375	836.61962890625	742.2611083984375	1204.90576171875	861.180908203125	663.1477661132812	1206.547729492188	802.7136840820312	814.4849243164062	956.8793334960938	743.6550903320312	791.1849365234375	942.4279174804688	821.4169311523438	766.7136840820312	1130.463745117188	853.6392211914062	805.37109375	762.914794921875	714.5045776367188	831.2866821289062	847.8486328125	724.8988037109375	811.2301025390625	840.9847412109375	795.1344604492188	640.0526123046875	1758.916015625	734.9534301757812	537.857421875	1845.1123046875	559.3628540039062	663.4430541992188	1861.142211914062	589.5400390625	508.541015625	1744.861083984375	710.9171752929688	453.4942016601562	1034.566528320312	533.9489135742188	774.3322143554688	1018.458679199219	701.7747802734375	774.3688354492188	1097.343505859375	613.4960327148438	549.418212890625	1102.966674804688	470.2257995605469	557.5634765625	530.799560546875	538.9182739257812	502.5998840332031	673.7359008789062	534.593505859375	554.4469604492188	37.02494430541992	659.3681640625	509.5609436035156	280.0533447265625	613.828369140625	744.578125	33.4749870300293	514.5971069335938	717.2528686523438	40.33446502685547	598.06884765625	614.0084838867188	38.80167388916016	547.0006103515625	561.5100708007812	38.28044509887695	751.7989501953125	827.498779296875	548.7560424804688	566.6682739257812	811.9962768554688	819.9306640625	632.17236328125	691.0450439453125	131.6259918212891	868.3009643554688	808.126953125	434.6849365234375	644.961181640625	801.6419067382812	55.54116058349609	685.5866088867188	731.2249145507812	53.86639785766602	697.0538940429688	791.710205078125	80.86923980712891	799.392822265625	618.3191528320312	150.160888671875	871.5502319335938	
330	3.29	610.8267822265625	1108.903564453125	748.9353637695312	498.9921264648438	1117.252685546875	673.276611328125	546.200439453125	1150.4560546875	714.6279296875	670.3236083984375	1357.2373046875	542.917724609375	523.6795043945312	1301.928955078125	750.4205322265625	534.050537109375	1595.946533203125	718.7879638671875	647.1995849609375	1491.2822265625	573.733154296875	570.7999877929688	1407.92041015625	809.7896728515625	446.18408203125	1577.953491210938	662.3204956054688	443.612548828125	1566.393188476562	552.5541381835938	379.6480712890625	1436.339599609375	515.2659301757812	380.7762756347656	1223.952270507812	453.2877197265625	392.6348571777344	1196.205932617188	537.0093994140625	488.8175964355469	991.10107421875	344.1489562988281	423.851318359375	949.8103637695312	389.8119812011719	393.2296142578125	1113.586181640625	415.5717468261719	527.602294921875	805.759033203125	300.3608703613281	446.2578125	883.2670288085938	350.2899169921875	495.0312194824219	909.989990234375	306.7605590820312	712.7420043945312	1572.42529296875	779.67578125	750.4239501953125	1497.940673828125	830.80615234375	746.3495483398438	1204.6376953125	855.795654296875	667.0665283203125	1206.3857421875	797.496337890625	818.0146484375	956.7177124023438	737.7052001953125	794.939453125	942.1043090820312	815.5095825195312	770.6836547851562	1130.121337890625	848.1466674804688	809.146728515625	762.8233642578125	708.202392578125	834.9462890625	847.7932739257812	718.7171630859375	815.041259765625	840.75439453125	788.9876708984375	644.9056396484375	1758.824584960938	729.4057006835938	542.1434326171875	1845.087646484375	554.1752319335938	667.9340209960938	1860.835571289062	583.7793579101562	513.2660522460938	1745.058349609375	705.942138671875	456.3707885742188	1034.268432617188	530.8888549804688	779.646240234375	1018.821960449219	693.9213256835938	778.2213745117188	1097.575317382812	605.7178344726562	551.3224487304688	1102.80322265625	465.1091003417969	559.04296875	530.4078979492188	536.7010498046875	504.4217224121094	673.4906616210938	532.1435546875	554.54150390625	37.10892105102539	659.4533081054688	510.3960266113281	280.1080017089844	612.9488525390625	744.6357421875	33.35221862792969	514.4573974609375	717.25048828125	40.30049896240234	597.9971923828125	613.9698486328125	38.71644973754883	547.0020751953125	561.3932495117188	38.54254531860352	751.685791015625	833.627197265625	551.1561279296875	552.8896484375	817.9876098632812	821.3935546875	622.1578979492188	709.0286865234375	124.5711898803711	846.0955810546875	817.2683715820312	435.2199096679688	629.0685424804688	818.03369140625	55.74489212036133	659.3661499023438	747.8822631835938	52.36589431762695	672.1143798828125	809.6116333007812	78.14964294433594	773.983642578125	636.000244140625	141.6019134521484	851.2998657226562	
